<?xml version="1.0" encoding="UTF-8" standalone="no"?>
<svg
   xmlns:dc="http://purl.org/dc/elements/1.1/"
   xmlns:cc="http://creativecommons.org/ns#"
   xmlns:rdf="http://www.w3.org/1999/02/22-rdf-syntax-ns#"
   xmlns:svg="http://www.w3.org/2000/svg"
   xmlns="http://www.w3.org/2000/svg"
   xmlns:sodipodi="http://sodipodi.sourceforge.net/DTD/sodipodi-0.dtd"
   xmlns:inkscape="http://www.inkscape.org/namespaces/inkscape"
   width="100%"
   height="100%"
   viewBox="0 0 430 477"
   version="1.1"
   xml:space="preserve"
   style="fill-rule:evenodd;clip-rule:evenodd;stroke-linecap:round;stroke-linejoin:round;"
   id="svg836"
   sodipodi:docname="cell_icon.svg"
   inkscape:version="1.0.2 (e86c8708, 2021-01-15)"><metadata
     id="metadata842"><rdf:RDF><cc:Work
         rdf:about=""><dc:format>image/svg+xml</dc:format><dc:type
           rdf:resource="http://purl.org/dc/dcmitype/StillImage" /><dc:title></dc:title></cc:Work></rdf:RDF></metadata><defs
     id="defs840" /><sodipodi:namedview
     pagecolor="#ffffff"
     bordercolor="#666666"
     borderopacity="1"
     objecttolerance="10"
     gridtolerance="10"
     guidetolerance="10"
     inkscape:pageopacity="0"
     inkscape:pageshadow="2"
     inkscape:window-width="1920"
     inkscape:window-height="1080"
     id="namedview838"
     showgrid="false"
     inkscape:zoom="1.9077568"
     inkscape:cx="228.20469"
     inkscape:cy="267.85316"
     inkscape:window-x="0"
     inkscape:window-y="0"
     inkscape:window-maximized="0"
     inkscape:current-layer="svg836" /><g
     id="g834-7-3-5"
     transform="matrix(0.43733335,0,0,0.43733335,2.8413169,230.35276)"
     style="clip-rule:evenodd;fill:#cb3c33;fill-opacity:1;fill-rule:evenodd;stroke-width:0.995495;stroke-linecap:round;stroke-linejoin:round;stroke-miterlimit:4;stroke-dasharray:none"><path
       id="path3155-9-9-5"
       d="m 258.81,217.583 c 7.374,13.496 3.803,11.544 16.414,24.636 10.787,11.197 13.392,16.095 37.223,17.556 14.083,0.863 13.65,-10.398 24.901,-23.233 9.989,-11.395 18.076,-17.011 30.66,-26.04 12.583,-9.03 23.236,-32.348 25.062,-33.108 -2.15,2.237 -8.099,23.312 -19.101,31.526 -8.403,6.274 -16.31,14.994 -20.089,17.995 -5.977,4.748 -24.054,23.781 -21.266,33.368 1.792,6.165 15.488,8.811 21.638,12.21 7.79,4.304 23.526,14.489 36.466,24.856 12.939,10.368 35.947,8.317 35.078,7.761 0.722,-0.132 -23.448,1.917 -37.765,-7.709 -14.317,-9.626 -29.035,-20.183 -37.72,-22.596 -16.211,-4.504 -23.756,-6.969 -39.388,-8.087 -15.157,-1.084 -18.713,-2.276 -24.816,-0.555 -16.132,4.549 -21.511,4.481 -29.462,16.449 -8.199,12.342 -9.89,25.317 -3.127,41.242 8.374,19.721 18.448,29.118 28.139,38.811 4.768,4.768 31.913,28.586 34.588,32.269 9.818,13.522 34.737,53.811 34.737,53.811 0,0 -30.157,-44.316 -38.917,-53.154 -6.335,-6.391 -18.737,-16.413 -24.257,-20.241 -5.52,-3.829 -33.335,-27.135 -45.923,-44.486 -7.824,-10.783 -23.639,-20.419 -33.368,-19.002 -9.728,1.417 -30.21,13.026 -35.897,20.709 -7.098,9.588 -25.757,17.347 -28.693,25.121 -4.9,12.972 11.484,25.959 7.436,42.002 -4.049,16.043 -7.704,24.025 -6.999,36.105 0.774,13.267 14.769,36.125 14.769,36.125 0,0 -16.432,-28.193 -17.554,-36.921 -1.041,-8.097 3.424,-29.109 6.269,-35.115 4.164,-8.792 -14.658,-32.294 -12.751,-43.685 2.34,-13.987 11.679,-13.191 21.091,-29.289 7.144,-12.219 9.078,-28.527 0.425,-37.937 -8.652,-9.41 -19.21,-10.493 -30.887,-10.007 -14.283,0.583 -31.765,3.257 -44.428,9.992 -8.421,4.479 -17.23,8.992 -26.817,9.231 -13.004,0.331 -43.973,7.354 -43.973,7.354 0,0 32.878,-8.044 41.051,-8.805 18.196,-1.696 25.614,-11.756 32.53,-14.602 16.087,-6.62 26.409,-5.005 37.893,-11.399 9.587,-5.338 17.649,-10.31 18.652,-24.036 1.003,-13.726 -6.195,-25.084 -14.514,-33.649 C 115.467,202.088 92.532,186.858 85.877,181.649 79.077,176.328 61.011,164.055 43.941,154.783 26.425,145.269 4.17,122.899 4.17,122.899 c -0.031,-0.011 25.323,22.009 40.547,30.381 15.353,8.443 21.51,11.603 40.407,24.22 18.897,12.616 31.446,21.017 46.64,24.778 11.438,2.831 25.266,2.458 32.729,-0.644 11.602,-4.721 32.421,-22.322 37.449,-30.16 22.067,-34.399 19.223,-65.796 19.134,-98.446 -0.098,-36.007 1.008,-57.063 2.705,-64.43 0.389,-1.686 0.18,-3.252 0.912,-3.941 1.094,-1.03 3.484,-0.135 5.204,0.046 3.374,0.353 5.143,0.932 6.054,0.998 1.454,0.104 0.74,3.855 0.261,10.507 -2.283,31.685 -6.143,31.364 -3.583,59.278 2.596,28.305 0.373,61.017 7.056,91.095 6.62,29.793 15.119,43.669 19.125,51.002 z"
       style="fill:#cb3c33;fill-opacity:1;stroke:#5f6b7a;stroke-width:0.995495;stroke-miterlimit:4;stroke-dasharray:none" /></g><g
     id="g834-7-3-5-1"
     transform="matrix(0.43733336,0,0,0.43733336,240.84132,221.50979)"
     style="clip-rule:evenodd;fill:#9558b2;fill-opacity:1;fill-rule:evenodd;stroke-width:0.995495;stroke-linecap:round;stroke-linejoin:round;stroke-miterlimit:4;stroke-dasharray:none"><path
       id="path3155-9-9-5-8"
       d="m 258.81,233.23001 c 7.374,13.496 3.803,11.544 16.414,24.636 10.787,11.197 13.392,16.095 37.223,17.556 14.083,0.863 13.65,-10.398 24.901,-23.233 9.989,-11.395 18.076,-17.011 30.66,-26.04 12.583,-9.03 23.236,-32.348 25.062,-33.108 -2.15,2.237 -8.099,23.312 -19.101,31.526 -8.403,6.274 -16.31,14.994 -20.089,17.995 -5.977,4.748 -24.054,23.781 -21.266,33.368 1.792,6.165 15.488,8.811 21.638,12.21 7.79,4.304 23.526,14.489 36.466,24.856 12.939,10.368 35.947,8.317 35.078,7.761 0.722,-0.132 -23.448,1.917 -37.765,-7.709 -14.317,-9.626 -29.035,-20.183 -37.72,-22.596 -16.211,-4.504 -23.756,-6.969 -39.388,-8.087 -15.157,-1.084 -18.713,-2.276 -24.816,-0.555 -16.132,4.549 -21.511,4.481 -29.462,16.449 -8.199,12.342 -9.89,25.317 -3.127,41.242 8.374,19.721 18.448,29.118 28.139,38.811 4.768,4.768 31.913,28.586 34.588,32.269 9.818,13.522 34.737,53.811 34.737,53.811 0,0 -30.157,-44.316 -38.917,-53.154 -6.335,-6.391 -18.737,-16.413 -24.257,-20.241 -5.52,-3.829 -33.335,-27.135 -45.923,-44.486 -7.824,-10.783 -23.639,-20.419 -33.368,-19.002 -9.728,1.417 -30.21,13.026 -35.897,20.709 -7.098,9.588 -25.757,17.347 -28.693,25.121 -4.9,12.972 11.484,25.959 7.436,42.002 -4.049,16.043 -7.704,24.025 -6.999,36.105 0.774,13.267 14.769,36.125 14.769,36.125 0,0 -16.432,-28.193 -17.554,-36.921 -1.041,-8.097 3.424,-29.109 6.269,-35.115 4.164,-8.792 -14.658,-32.294 -12.751,-43.685 2.34,-13.987 11.679,-13.191 21.091,-29.289 7.144,-12.219 9.078,-28.527 0.425,-37.937 -8.652,-9.41 -19.21,-10.493 -30.887,-10.007 -14.283,0.583 -31.765,3.257 -44.428,9.992 -8.421,4.479 -17.23,8.992 -26.817,9.231 -13.004,0.331 -43.973,7.354 -43.973,7.354 0,0 32.878,-8.044 41.051,-8.805 18.196,-1.696 25.614,-11.756 32.53,-14.602 16.087,-6.62 26.409,-5.005 37.893,-11.399 9.587,-5.338 17.649,-10.31 18.652,-24.036 1.003,-13.726 -6.195,-25.084 -14.514,-33.649 -10.653,-10.968 -33.588,-26.198 -40.243,-31.407 -6.8,-5.321 -24.866,-17.594 -41.936,-26.866 -17.516,-9.514 -39.771,-31.884 -39.771,-31.884 -0.031,-0.011 25.323,22.009 40.547,30.381 15.353,8.443 21.51,11.603 40.407,24.22 18.897,12.616 31.446,21.017 46.64,24.778 11.438,2.831 25.266,2.458 32.729,-0.644 11.602,-4.721 32.421,-22.322 37.449,-30.16 22.067,-34.399 19.223,-65.796 19.134,-98.445991 -0.098,-36.007 1.008,-57.063 2.705,-64.43 0.389,-1.686 0.18,-3.252 0.912,-3.941 1.094,-1.03 3.484,-0.135 5.204,0.046 3.374,0.353 5.143,0.932 6.054,0.998 1.454,0.104 0.74,3.855 0.261,10.507 -2.283,31.685 -6.143,31.364 -3.583,59.278 2.596,28.304991 0.373,61.016991 7.056,91.094991 6.62,29.793 15.119,43.669 19.125,51.002 z"
       style="fill:#9558b2;fill-opacity:1;stroke:#5f6b7a;stroke-width:0.995495;stroke-miterlimit:4;stroke-dasharray:none" /></g><g
     id="g834-7-3-5-8"
     transform="matrix(0.43733335,0,0,0.43733335,130.84132,30.352756)"
     style="clip-rule:evenodd;fill:#389826;fill-opacity:1;fill-rule:evenodd;stroke-width:0.995495;stroke-linecap:round;stroke-linejoin:round;stroke-miterlimit:4;stroke-dasharray:none"><path
       id="path3155-9-9-5-4"
       d="m 258.81,217.583 c 7.374,13.496 3.803,11.544 16.414,24.636 10.787,11.197 13.392,16.095 37.223,17.556 14.083,0.863 13.65,-10.398 24.901,-23.233 9.989,-11.395 18.076,-17.011 30.66,-26.04 12.583,-9.03 23.236,-32.348 25.062,-33.108 -2.15,2.237 -8.099,23.312 -19.101,31.526 -8.403,6.274 -16.31,14.994 -20.089,17.995 -5.977,4.748 -24.054,23.781 -21.266,33.368 1.792,6.165 15.488,8.811 21.638,12.21 7.79,4.304 23.526,14.489 36.466,24.856 12.939,10.368 35.947,8.317 35.078,7.761 0.722,-0.132 -23.448,1.917 -37.765,-7.709 -14.317,-9.626 -29.035,-20.183 -37.72,-22.596 -16.211,-4.504 -23.756,-6.969 -39.388,-8.087 -15.157,-1.084 -18.713,-2.276 -24.816,-0.555 -16.132,4.549 -21.511,4.481 -29.462,16.449 -8.199,12.342 -9.89,25.317 -3.127,41.242 8.374,19.721 18.448,29.118 28.139,38.811 4.768,4.768 31.913,28.586 34.588,32.269 9.818,13.522 34.737,53.811 34.737,53.811 0,0 -30.157,-44.316 -38.917,-53.154 -6.335,-6.391 -18.737,-16.413 -24.257,-20.241 -5.52,-3.829 -33.335,-27.135 -45.923,-44.486 -7.824,-10.783 -23.639,-20.419 -33.368,-19.002 -9.728,1.417 -30.21,13.026 -35.897,20.709 -7.098,9.588 -25.757,17.347 -28.693,25.121 -4.9,12.972 11.484,25.959 7.436,42.002 -4.049,16.043 -7.704,24.025 -6.999,36.105 0.774,13.267 14.769,36.125 14.769,36.125 0,0 -16.432,-28.193 -17.554,-36.921 -1.041,-8.097 3.424,-29.109 6.269,-35.115 4.164,-8.792 -14.658,-32.294 -12.751,-43.685 2.34,-13.987 11.679,-13.191 21.091,-29.289 7.144,-12.219 9.078,-28.527 0.425,-37.937 -8.652,-9.41 -19.21,-10.493 -30.887,-10.007 -14.283,0.583 -31.765,3.257 -44.428,9.992 -8.421,4.479 -17.23,8.992 -26.817,9.231 -13.004,0.331 -43.973,7.354 -43.973,7.354 0,0 32.878,-8.044 41.051,-8.805 18.196,-1.696 25.614,-11.756 32.53,-14.602 16.087,-6.62 26.409,-5.005 37.893,-11.399 9.587,-5.338 17.649,-10.31 18.652,-24.036 1.003,-13.726 -6.195,-25.084 -14.514,-33.649 C 115.467,202.088 92.532,186.858 85.877,181.649 79.077,176.328 61.011,164.055 43.941,154.783 26.425,145.269 4.17,122.899 4.17,122.899 c -0.031,-0.011 25.323,22.009 40.547,30.381 15.353,8.443 21.51,11.603 40.407,24.22 18.897,12.616 31.446,21.017 46.64,24.778 11.438,2.831 25.266,2.458 32.729,-0.644 11.602,-4.721 32.421,-22.322 37.449,-30.16 22.067,-34.399 19.223,-65.796 19.134,-98.446 -0.098,-36.007 1.008,-57.063 2.705,-64.43 0.389,-1.686 0.18,-3.252 0.912,-3.941 1.094,-1.03 3.484,-0.135 5.204,0.046 3.374,0.353 5.143,0.932 6.054,0.998 1.454,0.104 0.74,3.855 0.261,10.507 -2.283,31.685 -6.143,31.364 -3.583,59.278 2.596,28.305 0.373,61.017 7.056,91.095 6.62,29.793 15.119,43.669 19.125,51.002 z"
       style="fill:#389826;fill-opacity:1;stroke:#5f6b7a;stroke-width:0.995495;stroke-miterlimit:4;stroke-dasharray:none" /></g></svg>
